<?xml version="1.0" standalone="no"?>
<!DOCTYPE svg PUBLIC "-//W3C//DTD SVG 20010904//EN"
 "http://www.w3.org/TR/2001/REC-SVG-20010904/DTD/svg10.dtd">
<svg version="1.0" xmlns="http://www.w3.org/2000/svg"
 width="511.000000pt" height="195.000000pt" viewBox="0 0 511.000000 195.000000"
 preserveAspectRatio="xMidYMid meet">

<g transform="translate(0.000000,195.000000) scale(0.100000,-0.100000)"
fill="#000000" stroke="none">
<path d="M343 1935 c-157 -43 -258 -149 -270 -284 -11 -119 39 -217 142 -279
28 -16 114 -51 193 -77 156 -51 202 -80 202 -125 0 -69 -74 -106 -193 -97 -81
6 -119 21 -184 75 -24 19 -48 32 -55 29 -30 -12 -148 -119 -148 -133 0 -26
101 -118 163 -148 149 -73 343 -74 485 -2 68 35 125 94 162 170 30 60 32 72
28 138 -6 89 -30 141 -93 196 -58 51 -99 70 -260 121 -161 50 -192 68 -198
113 l-4 33 -1 -32 c-1 -22 5 -39 19 -52 12 -11 99 -46 194 -76 143 -47 181
-64 227 -100 70 -55 101 -115 106 -207 5 -81 -23 -151 -89 -222 -161 -176
-525 -163 -696 24 -18 19 -33 37 -33 40 0 9 82 85 118 110 l34 22 31 -30 c54
-51 114 -75 200 -80 124 -7 197 33 197 108 0 56 -36 79 -218 139 -188 62 -249
100 -295 186 -31 57 -31 192 1 252 96 184 375 248 594 137 48 -24 128 -89 128
-103 0 -4 -29 -37 -65 -72 l-65 -65 -81 40 c-75 37 -89 41 -158 41 -75 0 -141
-22 -141 -45 0 -5 17 1 38 13 29 17 52 22 109 22 65 -1 81 -5 155 -43 l82 -42
68 67 c37 37 68 73 68 81 0 20 -68 78 -131 112 -109 58 -252 76 -366 45z"/>
<path d="M2260 1936 c-206 -53 -352 -203 -404 -417 -32 -132 -16 -263 49 -394
129 -259 463 -360 737 -223 139 70 225 171 277 326 30 89 29 252 -2 343 -31
91 -83 172 -146 231 -52 48 -146 108 -166 107 -5 0 11 -11 37 -24 61 -32 168
-132 208 -195 56 -87 80 -172 80 -285 0 -118 -10 -167 -51 -252 -58 -121 -189
-233 -329 -279 -67 -23 -229 -25 -310 -5 -168 42 -303 168 -361 338 -28 81
-33 246 -10 328 39 141 147 280 268 343 111 58 257 76 378 47 77 -18 91 -18
40 2 -56 21 -225 26 -295 9z"/>
<path d="M3466 1934 c-152 -37 -283 -146 -355 -297 -38 -80 -62 -179 -60 -248
1 -19 7 7 14 57 37 254 187 428 412 478 178 40 337 -1 461 -117 49 -47 110
-132 100 -142 -8 -8 -180 -85 -190 -85 -6 0 -29 21 -51 46 -134 152 -361 115
-454 -74 -25 -51 -28 -68 -28 -157 0 -86 4 -107 26 -155 53 -113 130 -168 246
-175 l68 -4 -62 9 c-85 12 -141 39 -187 90 -64 71 -81 120 -81 235 0 90 3 105
28 153 99 190 328 219 452 56 26 -34 35 -39 55 -34 45 12 182 83 187 97 7 18
-63 117 -116 164 -116 103 -299 143 -465 103z"/>
<path d="M930 1815 l0 -115 160 0 160 0 0 -425 0 -425 125 0 125 0 0 425 0
425 160 0 160 0 0 115 0 115 -445 0 -445 0 0 -115z m880 0 l0 -105 -160 0
-160 0 0 -425 0 -425 -115 0 -115 0 0 425 0 425 -160 0 -160 0 0 105 0 105
435 0 435 0 0 -105z"/>
<path d="M4210 1390 l0 -540 125 0 125 0 0 188 c0 183 1 189 24 221 l24 33 37
-59 c21 -32 90 -131 153 -220 l115 -163 144 0 c79 0 143 4 143 8 0 5 -26 44
-58 88 -56 76 -330 466 -345 491 -8 12 48 83 223 283 101 116 152 180 143 180
-4 -1 -28 -25 -52 -55 -24 -30 -66 -81 -95 -113 -105 -119 -211 -245 -225
-266 -12 -19 -9 -28 43 -101 31 -44 89 -127 129 -185 41 -58 108 -154 150
-213 l77 -108 -136 3 -137 3 -77 106 c-43 59 -110 155 -151 215 -40 60 -74
111 -77 114 -2 3 -17 -11 -33 -30 l-28 -35 -1 -187 0 -188 -115 0 -115 0 0
530 0 530 115 0 115 0 3 -187 3 -188 -1 190 0 190 -122 3 -123 3 0 -541z"/>
<path d="M4655 1754 c-83 -98 -162 -190 -176 -205 -30 -32 -43 -59 -29 -59 6
0 10 4 10 8 0 11 83 114 195 241 50 57 103 121 120 143 l29 39 138 -3 c76 -2
138 0 138 5 0 4 -62 7 -138 7 l-138 0 -149 -176z"/>
<path d="M2296 1710 c-73 -22 -150 -103 -181 -191 -20 -55 -19 -172 1 -239 37
-126 120 -198 244 -213 43 -5 43 -5 10 4 -19 6 -53 15 -75 21 -28 7 -57 27
-96 67 -47 48 -58 67 -74 123 -44 166 14 334 139 401 58 31 184 31 241 0 98
-52 157 -149 163 -269 9 -164 -75 -292 -216 -330 -31 -8 -38 -13 -22 -13 44
-1 124 44 171 97 62 68 83 136 77 246 -7 141 -79 247 -194 289 -51 18 -139 21
-188 7z"/>
<path d="M3061 1319 c1 -19 5 -45 9 -59 6 -16 7 -6 3 30 -7 63 -13 80 -12 29z"/>
<path d="M3080 1219 c0 -7 16 -45 35 -85 83 -172 249 -279 450 -291 202 -12
379 76 471 233 20 34 24 48 15 58 -12 14 -173 96 -189 96 -5 0 -21 -18 -35
-39 -32 -47 -80 -86 -133 -105 -23 -9 -31 -15 -19 -15 36 -1 123 57 155 104
17 25 33 45 36 45 12 0 162 -80 172 -92 9 -11 4 -25 -23 -65 -198 -294 -661
-280 -865 27 -17 25 -37 66 -46 93 -15 46 -24 59 -24 36z"/>
<path d="M213 601 c-67 -23 -118 -62 -154 -119 -36 -58 -49 -101 -49 -173 0
-77 24 -140 75 -197 65 -72 129 -103 223 -107 l77 -4 -71 8 c-91 11 -147 36
-205 93 -117 114 -118 305 -1 423 49 50 109 76 196 85 71 7 71 7 16 8 -30 1
-78 -7 -107 -17z"/>
<path d="M1574 610 c107 -14 173 -47 201 -101 15 -28 15 -29 -17 -43 -18 -8
-26 -15 -17 -15 9 -1 27 8 40 18 l24 19 -31 39 c-46 56 -109 85 -196 89 l-73
3 69 -9z"/>
<path d="M405 601 c78 -19 154 -81 192 -154 36 -72 36 -185 0 -259 -34 -69
-101 -134 -163 -158 -27 -10 -42 -19 -33 -20 31 0 120 53 158 96 68 78 96 199
67 297 -28 96 -154 209 -228 206 -18 -1 -17 -3 7 -8z"/>
<path d="M735 597 c-3 -7 -4 -140 -3 -297 l3 -285 73 -3 72 -3 -2 108 -2 108
-5 -100 -6 -100 -62 -3 -63 -3 0 290 0 290 128 4 127 3 -128 2 c-95 1 -129 -1
-132 -11z"/>
<path d="M1424 591 c-127 -58 -199 -198 -173 -338 13 -70 29 -102 76 -154 78
-86 207 -119 328 -85 45 14 69 29 111 71 l54 54 0 106 0 106 -117 -3 -118 -3
-3 -63 -3 -62 51 0 c27 0 50 -4 50 -9 0 -6 -11 -22 -23 -37 -20 -23 -34 -28
-83 -32 -50 -3 -64 0 -93 20 -71 48 -98 165 -55 238 46 80 131 101 213 55 46
-26 66 -31 75 -16 4 5 -3 7 -13 4 -12 -3 -34 5 -52 18 -44 31 -122 37 -169 11
-39 -22 -76 -79 -85 -133 -13 -73 31 -161 96 -194 73 -38 199 3 199 65 0 17
-7 20 -50 20 l-50 0 0 53 0 52 110 0 110 0 0 -91 c0 -85 -2 -94 -30 -132 -17
-24 -52 -53 -82 -69 -47 -25 -64 -28 -143 -28 -74 1 -98 5 -134 24 -62 32
-126 102 -145 158 -56 164 24 341 176 394 29 10 44 18 33 18 -11 1 -39 -8 -61
-18z"/>
<path d="M2094 533 c-20 -43 -76 -168 -126 -278 -49 -110 -92 -203 -95 -207
-2 -5 0 -8 4 -8 5 0 22 30 37 68 16 37 66 148 111 247 45 99 88 195 96 213 14
32 15 33 74 30 l59 -3 32 -75 c17 -41 40 -95 52 -120 59 -131 162 -369 162
-377 0 -1 -32 -1 -71 0 l-72 2 -20 54 c-12 30 -22 50 -24 45 -2 -5 6 -31 16
-59 l19 -50 72 -3 c40 -2 77 1 82 6 6 6 -22 81 -68 188 -43 99 -99 229 -125
289 l-48 110 -65 3 -66 3 -36 -78z"/>
<path d="M2567 603 c-9 -8 -9 -556 -1 -577 5 -12 21 -16 75 -16 l69 0 2 171 3
170 128 -171 129 -171 56 3 57 3 0 53 c-1 28 -2 162 -3 297 l-2 245 -52 -2
-53 -2 48 -3 47 -4 0 -280 c0 -153 0 -282 0 -286 -1 -8 -97 -10 -103 -3 -2 3
-62 83 -133 179 l-129 173 -3 -181 -2 -181 -60 0 -60 0 0 290 0 290 58 0 c56
0 57 0 92 -48 20 -26 76 -100 125 -165 l90 -118 3 163 c2 114 6 165 15 171 9
6 8 7 -3 4 -12 -3 -16 -32 -20 -155 l-5 -152 -40 53 c-23 28 -76 98 -119 155
l-78 102 -63 0 c-34 0 -65 -3 -68 -7z"/>
<path d="M3212 313 l3 -298 73 -3 72 -3 0 295 c0 162 -3 297 -7 299 -5 3 -8
-126 -8 -286 l0 -292 -62 -3 -63 -3 0 290 0 290 58 4 57 3 -63 2 -62 2 2 -297z"/>
<path d="M3693 603 l227 -3 0 -58 c0 -48 -4 -63 -29 -92 -15 -19 -77 -98 -137
-175 l-109 -140 147 3 148 3 0 -61 0 -60 -237 2 -238 3 2 48 c2 55 -6 43 158
252 l126 160 -145 3 -145 3 -4 52 -3 52 -2 -57 -2 -58 141 0 140 0 -21 -30
c-11 -16 -75 -98 -141 -182 l-120 -152 3 -50 3 -51 248 -3 247 -2 0 70 0 70
-140 0 -140 0 130 167 131 167 -3 61 -3 60 -230 0 -230 1 228 -3z"/>
<path d="M4057 603 c-4 -3 -7 -138 -7 -300 l0 -293 213 2 212 3 3 68 3 67
-146 0 -146 0 5 60 c2 33 0 60 -5 60 -5 0 -9 -29 -9 -65 l0 -65 145 0 145 0 0
-60 0 -60 -205 0 -205 0 0 290 0 290 195 0 195 0 0 -55 0 -55 -135 0 -135 0 0
-55 0 -55 110 0 109 0 4 -57 3 -58 0 60 -1 60 -107 3 -108 3 2 44 2 45 133 0
133 0 0 65 0 65 -198 0 c-109 0 -202 -3 -205 -7z"/>
<path d="M4673 603 c37 -2 96 -2 130 0 34 2 4 3 -68 3 -71 0 -99 -1 -62 -3z"/>
<path d="M1032 590 c89 -27 134 -88 132 -182 -1 -66 -25 -113 -74 -145 -18
-13 -28 -23 -22 -23 7 0 29 16 51 35 66 60 79 171 28 247 -25 36 -91 78 -122
77 -15 -1 -13 -3 7 -9z"/>
<path d="M4592 308 l-2 -298 70 0 c39 0 70 3 70 8 0 4 -29 5 -65 4 l-65 -4 -3
294 -2 293 -3 -297z"/>
<path d="M4908 585 c54 -17 80 -39 103 -90 35 -76 20 -164 -37 -220 -27 -26
-27 -27 -4 -13 56 33 87 151 59 225 -21 56 -96 114 -146 112 -10 0 1 -6 25
-14z"/>
<path d="M255 476 c-88 -39 -122 -155 -74 -253 22 -45 71 -88 92 -80 8 4 6 6
-4 6 -8 1 -27 13 -42 28 -114 120 -45 313 106 300 82 -7 135 -61 143 -148 4
-44 1 -62 -18 -98 -29 -57 -61 -80 -124 -90 -48 -8 -48 -9 -10 -10 49 -1 104
29 136 76 33 49 35 150 4 203 -39 68 -136 98 -209 66z"/>
<path d="M869 486 c-2 -2 -3 -38 -1 -80 l4 -76 53 0 c43 0 60 5 84 26 40 33
40 66 2 105 -25 25 -37 29 -84 29 -29 0 -56 -2 -58 -4z m136 -31 c32 -31 32
-59 0 -90 -19 -20 -34 -25 -75 -25 l-50 0 0 70 0 70 50 0 c41 0 56 -5 75 -25z"/>
<path d="M4720 409 l0 -81 71 4 c60 3 74 8 90 27 23 28 25 70 4 97 -13 17 -13
16 -3 -13 23 -63 -18 -103 -108 -103 l-44 0 0 71 0 71 65 -4 c35 -2 59 0 52 4
-6 4 -38 8 -69 8 l-58 0 0 -81z"/>
<path d="M2180 423 c0 -11 -14 -51 -31 -88 -16 -37 -29 -68 -27 -69 2 -1 33 0
69 3 l67 6 -32 77 c-35 85 -46 102 -46 71z m60 -140 c0 -2 -22 -3 -50 -3 -27
0 -50 2 -50 5 0 2 12 30 26 62 l25 58 25 -59 c13 -33 24 -61 24 -63z"/>
<path d="M4253 263 c26 -2 68 -2 95 0 26 2 4 3 -48 3 -52 0 -74 -1 -47 -3z"/>
<path d="M4920 240 c0 -13 117 -187 132 -196 6 -4 -18 35 -53 87 -34 51 -62
99 -62 106 0 7 -4 13 -9 13 -4 0 -8 -5 -8 -10z"/>
<path d="M1076 218 c5 -7 34 -50 66 -95 32 -45 58 -86 58 -92 0 -7 -27 -11
-69 -11 l-68 0 -63 95 c-35 53 -67 98 -71 101 -12 7 37 -74 84 -141 l43 -60
77 -3 c105 -4 105 0 -16 166 -35 47 -60 72 -41 40z"/>
<path d="M4732 222 c-8 -2 -11 -31 -10 -95 l2 -92 5 88 c3 48 9 87 14 87 4 0
13 0 21 0 7 0 42 -45 77 -100 l64 -99 78 -1 c42 0 77 3 77 8 0 4 -33 6 -73 4
l-73 -4 -65 100 c-61 96 -83 116 -117 104z"/>
<path d="M2046 89 l-29 -71 -74 5 c-40 2 -73 0 -73 -4 0 -5 34 -9 76 -9 l75 0
31 71 31 70 114 -3 c62 -2 113 0 113 5 0 4 -53 7 -117 7 l-118 0 -29 -71z"/>
</g>
</svg>
